<svg width="27" height="16" viewBox="0 0 32 20" fill="none" xmlns="http://www.w3.org/2000/svg">
<path d="M9.26165 0C10.1791 0 11.0268 0.0696517 11.8049 0.278606C12.581 0.417909 13.2198 0.708455 13.787 1.05671C14.3562 1.40696 14.7761 1.90447 15.0626 2.54327C15.3412 3.18009 15.4925 3.95819 15.4925 4.80595C15.4925 5.79301 15.2815 6.64077 14.784 7.27758C14.3562 7.9144 13.6577 8.48355 12.7999 8.90345C14.0059 9.25369 14.9233 9.89051 15.4825 10.7383C16.0417 11.586 16.3999 12.6427 16.3999 13.8487C16.3999 14.8358 16.191 15.6835 15.8328 16.392C15.4754 17.1051 14.9392 17.7133 14.2766 18.1571C13.6397 18.585 12.8616 18.9333 12.0139 19.1442C11.1834 19.3635 10.3294 19.4811 9.47061 19.4944L0 19.5084V0H9.26165ZM8.69449 7.91639C9.47061 7.91639 10.1074 7.70743 10.599 7.34922C11.0885 6.99102 11.3054 6.36017 11.3054 5.58406C11.3054 5.15421 11.2358 4.7363 11.0965 4.4557C10.9457 4.17132 10.7269 3.92863 10.4597 3.74924C10.171 3.59183 9.86239 3.47402 9.54225 3.39899C9.192 3.32934 8.83379 3.32934 8.4139 3.32934H4.31839V7.92634C4.31839 7.91639 8.69449 7.91639 8.69449 7.91639ZM8.90345 16.2606C9.3313 16.2606 9.7512 16.191 10.1094 16.1213C10.4597 16.0517 10.8179 15.9104 11.0965 15.6915C11.3751 15.4726 11.594 15.2636 11.8049 14.9154C11.9442 14.5651 12.0835 14.1373 12.0835 13.6397C12.0835 12.6527 11.8049 11.9442 11.2358 11.4467C10.6686 11.0189 9.89051 10.8099 8.9731 10.8099H4.31839V16.2507H8.90544L8.90345 16.2606ZM22.5511 16.191C23.1203 16.7581 23.9661 17.0387 25.0944 17.0387C25.8705 17.0387 26.579 16.8278 27.1481 16.4696C27.7153 16.0417 28.0636 15.6218 28.2029 15.196H31.6655C31.0964 16.8895 30.2486 18.0954 29.1223 18.8736C27.9959 19.58 26.6486 19.9999 25.0228 19.9999C23.9831 20.0045 22.952 19.8121 21.984 19.4328C21.1128 19.1089 20.3354 18.5742 19.7213 17.8765C19.0663 17.226 18.5799 16.4254 18.3044 15.5442C17.9561 14.6268 17.8069 13.6397 17.8069 12.5034C17.8069 11.4467 17.9462 10.4497 18.3044 9.5323C18.6626 8.61688 19.1522 7.83678 19.791 7.13032C20.4278 6.49351 21.2059 5.92435 22.0536 5.57411C22.9989 5.19774 24.0073 5.00525 25.0248 5.00694C26.2307 5.00694 27.2874 5.2159 28.2049 5.71341C29.1203 6.21092 29.8307 6.77211 30.3979 7.61987C30.965 8.39599 31.3849 9.31339 31.6735 10.3024C31.8128 11.2895 31.8825 12.2845 31.8128 13.4129H21.5641C21.5641 14.5671 21.982 15.6218 22.5511 16.191ZM27.0088 8.76414C26.5113 8.26663 25.7312 7.98604 24.8138 7.98604C24.177 7.98604 23.6875 8.12534 23.2596 8.33628C22.8317 8.54524 22.5512 8.83379 22.2725 9.1124C22.0124 9.38554 21.8393 9.72978 21.775 10.1015C21.7034 10.4497 21.6357 10.7383 21.6357 11.0169H27.9959C27.8566 9.97011 27.5004 9.26165 27.0088 8.76414ZM20.786 1.34527H28.7024V3.24974H20.786V1.34527Z" fill="black"/>
</svg>
