<svg width="22" height="20" viewBox="0 0 22 20" fill="none" xmlns="http://www.w3.org/2000/svg">
<g clip-path="url(#clip0_12_1019)">
<path d="M12.2833 6.16669C13.0126 6.16669 13.7121 6.43008 14.2278 6.89892C14.7435 7.36776 15.0333 8.00365 15.0333 8.66669C15.0333 8.99499 14.9621 9.32008 14.8239 9.6234C14.6857 9.92671 14.4832 10.2023 14.2278 10.4345C13.9724 10.6666 13.6693 10.8507 13.3356 10.9764C13.002 11.102 12.6444 11.1667 12.2833 11.1667C11.5539 11.1667 10.8544 10.9033 10.3387 10.4345C9.82298 9.96561 9.53325 9.32973 9.53325 8.66669C9.53325 8.00365 9.82298 7.36776 10.3387 6.89892C10.8544 6.43008 11.5539 6.16669 12.2833 6.16669ZM12.2833 1.66669C14.3254 1.66669 16.2839 2.40418 17.728 3.71694C19.172 5.02969 19.9833 6.81017 19.9833 8.66669C19.9833 13.9167 12.2833 21.6667 12.2833 21.6667C12.2833 21.6667 4.58325 13.9167 4.58325 8.66669C4.58325 6.81017 5.3945 5.02969 6.83853 3.71694C8.28256 2.40418 10.2411 1.66669 12.2833 1.66669ZM12.2833 3.66669C10.8246 3.66669 9.42561 4.19347 8.39416 5.13115C7.36271 6.06884 6.78325 7.3406 6.78325 8.66669C6.78325 9.66669 6.78325 11.6667 12.2833 18.3767C17.7833 11.6667 17.7833 9.66669 17.7833 8.66669C17.7833 7.3406 17.2038 6.06884 16.1723 5.13115C15.1409 4.19347 13.7419 3.66669 12.2833 3.66669Z" fill="#141414"/>
</g>
<defs>
<clipPath id="clip0_12_1019">
<rect width="22" height="20" fill="white"/>
</clipPath>
</defs>
</svg>
